<?xml version="1.0" encoding="UTF-8" standalone="no"?>
<!DOCTYPE svg PUBLIC "-//W3C//DTD SVG 1.1//EN" "http://www.w3.org/Graphics/SVG/1.1/DTD/svg11.dtd">
<svg width="100%" height="100%" viewBox="0 0 99 174" version="1.1" xmlns="http://www.w3.org/2000/svg" xmlns:xlink="http://www.w3.org/1999/xlink" xml:space="preserve" xmlns:serif="http://www.serif.com/" style="fill-rule:evenodd;clip-rule:evenodd;stroke-linejoin:round;stroke-miterlimit:2;">
    <g transform="matrix(1,0,0,1,-50.6162,-13.2981)">
        <g transform="matrix(1,0,0,1,31.5347,0)">
            <path d="M111.817,31.395C113.417,29.796 114.316,27.626 114.316,25.364C114.316,23.101 113.417,20.932 111.817,19.332C111.817,19.331 111.816,19.331 111.815,19.33C108.484,15.999 103.083,15.999 99.752,19.33C85.583,33.499 49.956,69.125 31.146,87.935C27.946,91.135 26.149,95.475 26.149,100C26.149,104.525 27.946,108.865 31.146,112.065C49.956,130.875 85.583,166.501 99.752,180.67C103.083,184.001 108.484,184.001 111.815,180.67C111.816,180.669 111.817,180.669 111.817,180.668C113.417,179.068 114.316,176.899 114.316,174.636C114.316,172.374 113.417,170.204 111.817,168.605C99.542,156.329 71.45,128.237 55.277,112.065C48.614,105.402 48.614,94.598 55.277,87.935C71.45,71.763 99.542,43.671 111.817,31.395Z" style="fill:white;"/>
        </g>
    </g>
</svg>
